<svg width="24" height="24" viewBox="0 0 24 24" fill="none" xmlns="http://www.w3.org/2000/svg">
<path d="M7 2H6C5.46957 2 4.96086 2.21071 4.58579 2.58579C4.21071 2.96086 4 3.46957 4 4V20C4 20.5304 4.21071 21.0391 4.58579 21.4142C4.96086 21.7893 5.46957 22 6 22H18C18.5304 22 19.0391 21.7893 19.4142 21.4142C19.7893 21.0391 20 20.5304 20 20V16M20 12L17.5833 9.58334M18.8889 6.44444C18.8889 8.89903 16.899 10.8889 14.4444 10.8889C11.9898 10.8889 10 8.89903 10 6.44444C10 3.98984 11.9898 2 14.4444 2C16.899 2 18.8889 3.98984 18.8889 6.44444Z" stroke="#120F19" stroke-width="2" stroke-linecap="round"/>
</svg>
