<svg width="24" height="24" viewBox="0 0 24 24" fill="none" xmlns="http://www.w3.org/2000/svg">
<path d="M12 2.13365H4.22222C3.63285 2.13365 3.06762 2.36621 2.65087 2.78017C2.23413 3.19414 2 3.75559 2 4.34102V19.7926C2 20.3781 2.23413 20.9395 2.65087 21.3535C3.06762 21.7674 3.63285 22 4.22222 22H19.7778C20.3671 22 20.9324 21.7674 21.3491 21.3535C21.7659 20.9395 22 20.3781 22 19.7926V12.0668M17.5553 2C17.6035 2 17.651 2.0145 17.6911 2.04123C17.731 2.06796 17.7623 2.10605 17.7806 2.15038L18.1449 3.41953C18.3068 3.99119 18.6135 4.51185 19.0354 4.93184C19.4573 5.35184 19.9803 5.65719 20.5546 5.81837L21.8301 6.18099C21.8789 6.19482 21.9218 6.22436 21.9525 6.26467C21.9832 6.30509 22 6.35468 22 6.40535C22 6.45594 21.9831 6.50504 21.9525 6.54542C21.9219 6.58577 21.8789 6.61523 21.8301 6.6291L20.5546 6.99232C19.9804 7.15348 19.4573 7.45833 19.0354 7.87824C18.6136 8.29818 18.3068 8.81897 18.1449 9.39055L17.7806 10.6603C17.7667 10.7091 17.7372 10.7522 17.6966 10.7828C17.656 10.8133 17.6061 10.8295 17.5553 10.8295C17.5045 10.8294 17.4551 10.8132 17.4145 10.7828C17.3739 10.7522 17.3444 10.7091 17.3305 10.6603L16.9662 9.39055C16.8043 8.81895 16.4975 8.29819 16.0757 7.87824C15.6539 7.45833 15.1307 7.1535 14.5566 6.99232L13.2811 6.6291C13.2321 6.61525 13.1893 6.58581 13.1586 6.54542C13.128 6.50503 13.1111 6.45597 13.1111 6.40535C13.1111 6.35468 13.1279 6.30509 13.1586 6.26467C13.1893 6.22436 13.2322 6.1948 13.2811 6.18099L14.5566 5.81837C15.1308 5.65718 15.6538 5.3518 16.0757 4.93184C16.4975 4.51187 16.8043 3.99116 16.9662 3.41953L17.3305 2.15038C17.3488 2.10601 17.38 2.06797 17.42 2.04123C17.46 2.01454 17.5071 2.00004 17.5553 2Z" stroke="#120F19" stroke-width="2" stroke-linecap="round" stroke-linejoin="round"/>
</svg>
