<svg width="120" height="20" viewBox="0 0 120 20" fill="none" xmlns="http://www.w3.org/2000/svg">
<path d="M79.4111 19.2419C79.4098 19.4195 79.3384 19.5893 79.2124 19.7143C79.0865 19.8394 78.9163 19.9094 78.739 19.9091H68.8468C68.4778 19.9091 68.1747 19.6095 68.1747 19.2419V0.684179C68.1747 0.31662 68.4768 0.0169796 68.8468 0.0169796H77.9333C78.3022 0.0169796 78.6054 0.31662 78.6054 0.68318C78.6041 0.860763 78.5326 1.03061 78.4067 1.15562C78.2808 1.28063 78.1106 1.35065 77.9333 1.35038H69.5348V8.337H75.7494C76.1184 8.337 76.4215 8.63664 76.4215 9.0042C76.4202 9.18178 76.3488 9.35162 76.2228 9.47663C76.0969 9.60165 75.9267 9.67166 75.7494 9.67139H69.5348V18.5587H78.756C78.9312 18.5686 79.0961 18.6445 79.2177 18.7712C79.3393 18.898 79.4084 19.0662 79.4111 19.2419ZM96.207 18.292C95.9812 18.292 95.7645 18.3813 95.6041 18.5405C95.4437 18.6997 95.3525 18.9159 95.3504 19.142C95.3504 19.3696 95.4406 19.5878 95.6013 19.7487C95.7619 19.9096 95.9798 20 96.207 20C96.4342 20 96.652 19.9096 96.8127 19.7487C96.9733 19.5878 97.0636 19.3696 97.0636 19.142C97.0587 18.9168 96.9666 18.7022 96.8068 18.5436C96.647 18.385 96.4319 18.2948 96.207 18.292ZM42.4608 0.0169796C42.0919 0.0169796 41.7897 0.31662 41.7897 0.68318V19.2419C41.7897 19.4205 41.8605 19.5917 41.9866 19.7179C42.1126 19.8442 42.2836 19.9151 42.4618 19.9151C42.6401 19.9151 42.811 19.8442 42.9371 19.7179C43.0631 19.5917 43.1339 19.4205 43.1339 19.2419V0.684179C43.1348 0.595742 43.1178 0.508039 43.0842 0.426261C43.0506 0.344484 43.0009 0.270294 42.9382 0.208084C42.8754 0.145873 42.8008 0.0969062 42.7188 0.0640808C42.6368 0.0312555 42.5491 0.0152391 42.4608 0.0169796ZM62.8007 0.0169796C62.4318 0.0169796 62.1296 0.31662 62.1296 0.68318V17.2593L49.0443 0.28366L49.0104 0.2497L48.9606 0.19976C48.9436 0.183779 48.9267 0.1668 48.9107 0.1668C48.8928 0.14982 48.8758 0.133839 48.8599 0.133839C48.8429 0.11686 48.826 0.11686 48.7921 0.0998801C48.7751 0.0829005 48.7582 0.0829005 48.7422 0.0669197C48.7252 0.0669197 48.6923 0.0499401 48.6744 0.0499401C48.6574 0.0499401 48.6415 0.0329604 48.6076 0.0329604H48.4061C48.3892 0.0329604 48.3722 0.0329604 48.3563 0.0499401C48.3383 0.0499401 48.3054 0.0669197 48.2885 0.0669197C48.2715 0.0669197 48.2546 0.0829005 48.2207 0.0829005C48.2047 0.0998801 48.1878 0.0998801 48.1708 0.11686C48.1538 0.133839 48.1369 0.133839 48.104 0.14982C48.104 0.14982 48.087 0.14982 48.087 0.1668L48.0531 0.19976L48.0033 0.2497C47.9863 0.26668 47.9694 0.28366 47.9694 0.29964C47.9524 0.31662 47.9355 0.3336 47.9355 0.34958C47.9185 0.36656 47.9185 0.38354 47.9016 0.399521C47.8856 0.4165 47.8856 0.43348 47.8686 0.46644C47.8686 0.48342 47.8517 0.500399 47.8517 0.53336C47.8517 0.55034 47.8347 0.567319 47.8347 0.60028V19.2589C47.8347 19.6254 48.1369 19.9261 48.5069 19.9261C48.8758 19.9261 49.179 19.6264 49.179 19.2589V2.65082L62.2622 19.6424C62.2622 19.6594 62.2792 19.6594 62.2792 19.6594L62.347 19.7263C62.363 19.7423 62.3799 19.7423 62.3969 19.7593C62.4138 19.7763 62.4467 19.7922 62.4806 19.8092C62.4976 19.8092 62.5145 19.8262 62.5305 19.8262C62.5644 19.8422 62.5983 19.8422 62.6322 19.8592C62.6492 19.8592 62.6492 19.8761 62.6661 19.8761C62.716 19.8931 62.7658 19.8931 62.8167 19.8931C62.8506 19.8931 62.9005 19.8931 62.9344 19.8761C62.9513 19.8761 62.9683 19.8761 62.9683 19.8592C63.0012 19.8592 63.0181 19.8422 63.052 19.8422C63.069 19.8422 63.0859 19.8262 63.0859 19.8262C63.1029 19.8092 63.1358 19.8092 63.1528 19.7922C63.1697 19.7922 63.1867 19.7763 63.1867 19.7593C63.1867 19.7593 63.2036 19.7593 63.2036 19.7423L63.2365 19.7093L63.2864 19.6594C63.3043 19.6424 63.3213 19.6254 63.3213 19.6095C63.3372 19.5925 63.3542 19.5755 63.3542 19.5595C63.3711 19.5425 63.3711 19.5256 63.3881 19.5096C63.405 19.4926 63.405 19.4756 63.421 19.4427C63.421 19.4257 63.438 19.4087 63.438 19.3757C63.438 19.3588 63.4549 19.3428 63.4549 19.3088V0.68318C63.4575 0.59584 63.4423 0.508884 63.4105 0.427553C63.3786 0.346222 63.3306 0.2722 63.2694 0.20995C63.2081 0.1477 63.135 0.0985099 63.0543 0.0653453C62.9735 0.0321807 62.888 0.0157282 62.8007 0.0169796ZM118.329 0.0829005C117.959 0.0829005 117.657 0.38354 117.657 0.7501V19.3088C117.657 19.4872 117.728 19.6583 117.853 19.7845C117.979 19.9107 118.15 19.9815 118.328 19.9815C118.507 19.9815 118.677 19.9107 118.803 19.7845C118.929 19.6583 119 19.4872 119 19.3088V0.751099C118.999 0.573433 118.928 0.40333 118.802 0.278076C118.677 0.152821 118.506 0.0826344 118.329 0.0829005ZM108.973 0.500399C108.956 0.46644 108.956 0.46644 108.939 0.450459C108.922 0.43348 108.922 0.400519 108.906 0.38354L108.889 0.36656C108.872 0.334994 108.849 0.306893 108.822 0.28366C108.822 0.28366 108.806 0.28366 108.806 0.26668C108.772 0.23372 108.755 0.21674 108.721 0.19976C108.721 0.19976 108.705 0.183779 108.688 0.183779C108.658 0.170964 108.629 0.15417 108.603 0.133839C108.587 0.133839 108.587 0.133839 108.57 0.11686C108.535 0.0998801 108.518 0.0998801 108.486 0.0998801H108.216C108.182 0.0998801 108.149 0.11686 108.116 0.133839H108.099L107.998 0.183779H107.981C107.944 0.206557 107.91 0.234463 107.88 0.26668C107.847 0.300639 107.83 0.31662 107.813 0.350579L107.796 0.36656C107.779 0.384894 107.767 0.408239 107.763 0.43348C107.763 0.450459 107.746 0.46644 107.746 0.48342V0.500399L100.272 19.0581C100.231 19.1597 100.216 19.2698 100.228 19.3786C100.239 19.4874 100.277 19.5917 100.339 19.6823C100.4 19.7729 100.483 19.8471 100.579 19.8983C100.676 19.9495 100.784 19.9762 100.893 19.976C101.162 19.976 101.414 19.8092 101.515 19.5595L108.368 2.55094L115.221 19.5595C115.269 19.6845 115.354 19.7916 115.465 19.8662C115.577 19.9407 115.708 19.9791 115.842 19.976C115.928 19.9756 116.013 19.9586 116.093 19.9261C116.176 19.8957 116.252 19.8487 116.316 19.7879C116.38 19.7272 116.431 19.6539 116.465 19.5727C116.5 19.4915 116.518 19.404 116.517 19.3157C116.517 19.2274 116.498 19.1401 116.463 19.0591L108.972 0.499401L108.973 0.500399ZM24.8752 18.5757H15.6541V9.67139H21.8686C22.2376 9.67139 22.5397 9.37175 22.5397 9.0042C22.5384 8.82679 22.4671 8.65709 22.3414 8.53211C22.2157 8.40712 22.0458 8.33699 21.8686 8.337H15.6541V1.35038H24.0515C24.4205 1.35038 24.7236 1.05074 24.7236 0.68318C24.722 0.505771 24.6505 0.336181 24.5246 0.211385C24.3987 0.0865893 24.2286 0.016709 24.0515 0.0169796H14.9819C14.613 0.0169796 14.3098 0.31662 14.3098 0.68318V19.2419C14.3098 19.6095 14.612 19.9091 14.9819 19.9091H24.8742C25.2441 19.9091 25.5463 19.6095 25.5463 19.2419C25.5447 19.0647 25.4733 18.8952 25.3476 18.7705C25.2219 18.6457 25.0521 18.5757 24.8752 18.5757ZM38.3274 0.0169796H29.2928C28.9228 0.0169796 28.6207 0.31662 28.6207 0.68318V19.2419C28.6207 19.4205 28.6915 19.5917 28.8175 19.7179C28.9436 19.8442 29.1145 19.9151 29.2928 19.9151C29.471 19.9151 29.642 19.8442 29.768 19.7179C29.8941 19.5917 29.9649 19.4205 29.9649 19.2419V9.67139H36.1446C36.5135 9.67139 36.8167 9.37175 36.8167 9.0042C36.8153 8.82661 36.7439 8.65677 36.618 8.53175C36.4921 8.40674 36.3219 8.33673 36.1446 8.337H29.9639V1.35038H38.3454C38.7143 1.35038 39.0165 1.05074 39.0165 0.68318C39.0165 0.31662 38.6964 0.0169796 38.3274 0.0169796ZM0.673111 0C0.303149 0 0 0.29964 0 0.667199C0 1.03376 0.302152 1.3344 0.672114 1.3344C5.45868 1.3344 9.33779 5.20276 9.33779 9.93807C9.33779 14.6734 5.45868 18.5587 0.672114 18.5587C0.303149 18.5587 0 18.8584 0 19.2259C0 19.5925 0.302152 19.8931 0.672114 19.8931C6.19761 19.8931 10.682 15.4235 10.682 9.95505C10.682 4.48462 6.1986 0 0.673111 0ZM83.8636 0C83.4937 0 83.1915 0.29964 83.1915 0.667199C83.1915 1.03376 83.4937 1.3344 83.8636 1.3344C88.6502 1.3344 92.5293 5.20276 92.5293 9.93807C92.5293 14.6734 88.6332 18.5417 83.8636 18.5417C83.4937 18.5417 83.1915 18.8414 83.1915 19.2089C83.1915 19.5755 83.4937 19.8761 83.8636 19.8761C89.3891 19.8761 93.8735 15.4075 93.8735 9.93807C93.8725 4.46864 89.3901 0 83.8636 0Z" fill="url(#paint0_linear_14_91)"/>
<defs>
<linearGradient id="paint0_linear_14_91" x1="0" y1="9.996" x2="118.999" y2="9.996" gradientUnits="userSpaceOnUse">
<stop stop-color="#5427D8"/>
<stop offset="0.503" stop-color="#FF66B8"/>
<stop offset="1" stop-color="#FC7903"/>
</linearGradient>
</defs>
</svg>
