<svg width="36" height="20" viewBox="0 0 36 20" fill="none" xmlns="http://www.w3.org/2000/svg">
<g clip-path="url(#clip0_3510_635)">
<path d="M13.0851 18.292C12.8581 18.292 12.6402 18.3813 12.4789 18.5405C12.3177 18.6997 12.226 18.9159 12.2239 19.142C12.2239 19.3696 12.3146 19.5878 12.4761 19.7487C12.6376 19.9096 12.8567 20 13.0851 20C13.3135 20 13.5325 19.9096 13.694 19.7487C13.8555 19.5878 13.9462 19.3696 13.9462 19.142C13.9413 18.9168 13.8488 18.7022 13.6881 18.5436C13.5274 18.385 13.3112 18.2948 13.0851 18.292ZM35.3253 0.0829005C34.9534 0.0829005 34.6496 0.38354 34.6496 0.7501V19.3088C34.6496 19.4872 34.7207 19.6583 34.8474 19.7845C34.974 19.9106 35.1457 19.9815 35.3248 19.9815C35.5039 19.9815 35.6756 19.9106 35.8022 19.7845C35.9289 19.6583 36 19.4872 36 19.3088V0.751099C35.9992 0.573433 35.9277 0.40333 35.8013 0.278076C35.6748 0.152821 35.5036 0.0826344 35.3253 0.0829005ZM25.9195 0.500399C25.9025 0.46644 25.9025 0.46644 25.8854 0.450459C25.8684 0.43348 25.8684 0.400519 25.8523 0.38354L25.8353 0.36656C25.8179 0.334994 25.7948 0.306893 25.7671 0.28366C25.7671 0.28366 25.7511 0.28366 25.7511 0.26668C25.717 0.23372 25.7 0.21674 25.6659 0.19976C25.6659 0.19976 25.6498 0.183779 25.6328 0.183779C25.6023 0.170964 25.5736 0.15417 25.5476 0.133839C25.5315 0.133839 25.5315 0.133839 25.5145 0.11686C25.4794 0.0998801 25.4624 0.0998801 25.4293 0.0998801H25.1586C25.1245 0.0998801 25.0914 0.11686 25.0573 0.133839H25.0403L24.939 0.183779H24.922C24.8845 0.206557 24.8504 0.234463 24.8207 0.26668C24.7877 0.300639 24.7706 0.31662 24.7536 0.350579L24.7365 0.36656C24.7186 0.384894 24.7067 0.408239 24.7024 0.43348C24.7024 0.450459 24.6854 0.46644 24.6854 0.48342V0.500399L17.1714 19.0581C17.1306 19.1597 17.1154 19.2698 17.1272 19.3786C17.139 19.4874 17.1774 19.5917 17.239 19.6823C17.3007 19.7729 17.3837 19.8471 17.4808 19.8983C17.5779 19.9495 17.6861 19.9762 17.796 19.976C18.0667 19.976 18.3203 19.8092 18.4216 19.5595L25.311 2.55094L32.2004 19.5595C32.2488 19.6845 32.3348 19.7916 32.4466 19.8662C32.5584 19.9407 32.6905 19.9791 32.825 19.976C32.9116 19.9756 32.9974 19.9586 33.0776 19.9261C33.1609 19.8957 33.237 19.8487 33.3013 19.7879C33.3656 19.7272 33.4168 19.6539 33.4516 19.5727C33.4865 19.4915 33.5043 19.404 33.5039 19.3157C33.5036 19.2274 33.4851 19.1401 33.4496 19.0591L25.9185 0.499401L25.9195 0.500399ZM0.675704 0C0.303764 0 0 0.29964 0 0.667199C0 1.03376 0.303764 1.3344 0.675704 1.3344C5.48787 1.3344 9.38773 5.20276 9.38773 9.93807C9.38773 14.6734 5.47083 18.5417 0.675704 18.5417C0.303764 18.5417 0 18.8414 0 19.2089C0 19.5755 0.303764 19.8761 0.675704 19.8761C6.23075 19.8761 10.7391 15.4075 10.7391 9.93807C10.7381 4.46864 6.23175 0 0.675704 0Z" fill="url(#paint0_linear_3510_635)"/>
</g>
<defs>
<linearGradient id="paint0_linear_3510_635" x1="-0.42608" y1="9.996" x2="35.999" y2="9.996" gradientUnits="userSpaceOnUse">
<stop stop-color="#5427D8"/>
<stop offset="0.503" stop-color="#FF66B8"/>
<stop offset="1" stop-color="#FC7903"/>
</linearGradient>
<clipPath id="clip0_3510_635">
<rect width="36" height="20" fill="white"/>
</clipPath>
</defs>
</svg>
