<svg width="120" height="40" viewBox="0 0 120 40" fill="none" xmlns="http://www.w3.org/2000/svg">
<path d="M79.4111 19.2419C79.4098 19.4195 79.3384 19.5893 79.2124 19.7143C79.0865 19.8394 78.9163 19.9094 78.739 19.9091H68.8468C68.4778 19.9091 68.1747 19.6095 68.1747 19.2419V0.684179C68.1747 0.31662 68.4768 0.0169796 68.8468 0.0169796H77.9333C78.3022 0.0169796 78.6054 0.31662 78.6054 0.68318C78.6041 0.860763 78.5326 1.03061 78.4067 1.15562C78.2808 1.28063 78.1106 1.35065 77.9333 1.35038H69.5348V8.337H75.7494C76.1184 8.337 76.4215 8.63664 76.4215 9.0042C76.4202 9.18178 76.3488 9.35162 76.2228 9.47663C76.0969 9.60165 75.9267 9.67166 75.7494 9.67139H69.5348V18.5587H78.756C78.9312 18.5686 79.0961 18.6445 79.2177 18.7712C79.3393 18.898 79.4084 19.0662 79.4111 19.2419ZM96.207 18.292C95.9812 18.292 95.7645 18.3813 95.6041 18.5405C95.4437 18.6997 95.3525 18.9159 95.3504 19.142C95.3504 19.3696 95.4406 19.5878 95.6013 19.7487C95.7619 19.9096 95.9798 20 96.207 20C96.4342 20 96.652 19.9096 96.8127 19.7487C96.9733 19.5878 97.0636 19.3696 97.0636 19.142C97.0587 18.9168 96.9666 18.7022 96.8068 18.5436C96.647 18.385 96.4319 18.2948 96.207 18.292ZM42.4608 0.0169796C42.0919 0.0169796 41.7897 0.31662 41.7897 0.68318V19.2419C41.7897 19.4205 41.8605 19.5917 41.9866 19.7179C42.1126 19.8442 42.2836 19.9151 42.4618 19.9151C42.6401 19.9151 42.811 19.8442 42.9371 19.7179C43.0631 19.5917 43.1339 19.4205 43.1339 19.2419V0.684179C43.1348 0.595742 43.1178 0.508039 43.0842 0.426261C43.0506 0.344484 43.0009 0.270294 42.9382 0.208084C42.8754 0.145873 42.8008 0.0969062 42.7188 0.0640808C42.6368 0.0312555 42.5491 0.0152391 42.4608 0.0169796ZM62.8007 0.0169796C62.4318 0.0169796 62.1296 0.31662 62.1296 0.68318V17.2593L49.0443 0.28366L49.0104 0.2497L48.9606 0.19976C48.9436 0.183779 48.9267 0.1668 48.9107 0.1668C48.8928 0.14982 48.8758 0.133839 48.8599 0.133839C48.8429 0.11686 48.826 0.11686 48.7921 0.0998801C48.7751 0.0829005 48.7582 0.0829005 48.7422 0.0669197C48.7252 0.0669197 48.6923 0.0499401 48.6744 0.0499401C48.6574 0.0499401 48.6415 0.0329604 48.6076 0.0329604H48.4061C48.3892 0.0329604 48.3722 0.0329604 48.3563 0.0499401C48.3383 0.0499401 48.3054 0.0669197 48.2885 0.0669197C48.2715 0.0669197 48.2546 0.0829005 48.2207 0.0829005C48.2047 0.0998801 48.1878 0.0998801 48.1708 0.11686C48.1538 0.133839 48.1369 0.133839 48.104 0.14982C48.104 0.14982 48.087 0.14982 48.087 0.1668L48.0531 0.19976L48.0033 0.2497C47.9863 0.26668 47.9694 0.28366 47.9694 0.29964C47.9524 0.31662 47.9355 0.3336 47.9355 0.34958C47.9185 0.36656 47.9185 0.38354 47.9016 0.399521C47.8856 0.4165 47.8856 0.43348 47.8686 0.46644C47.8686 0.48342 47.8517 0.500399 47.8517 0.53336C47.8517 0.55034 47.8347 0.567319 47.8347 0.60028V19.2589C47.8347 19.6254 48.1369 19.9261 48.5069 19.9261C48.8758 19.9261 49.179 19.6264 49.179 19.2589V2.65082L62.2622 19.6424C62.2622 19.6594 62.2792 19.6594 62.2792 19.6594L62.347 19.7263C62.363 19.7423 62.3799 19.7423 62.3969 19.7593C62.4138 19.7763 62.4467 19.7922 62.4806 19.8092C62.4976 19.8092 62.5145 19.8262 62.5305 19.8262C62.5644 19.8422 62.5983 19.8422 62.6322 19.8592C62.6492 19.8592 62.6492 19.8761 62.6661 19.8761C62.716 19.8931 62.7658 19.8931 62.8167 19.8931C62.8506 19.8931 62.9005 19.8931 62.9344 19.8761C62.9513 19.8761 62.9683 19.8761 62.9683 19.8592C63.0012 19.8592 63.0181 19.8422 63.052 19.8422C63.069 19.8422 63.0859 19.8262 63.0859 19.8262C63.1029 19.8092 63.1358 19.8092 63.1528 19.7922C63.1697 19.7922 63.1867 19.7763 63.1867 19.7593C63.1867 19.7593 63.2036 19.7593 63.2036 19.7423L63.2365 19.7093L63.2864 19.6594C63.3043 19.6424 63.3213 19.6254 63.3213 19.6095C63.3372 19.5925 63.3542 19.5755 63.3542 19.5595C63.3711 19.5425 63.3711 19.5256 63.3881 19.5096C63.405 19.4926 63.405 19.4756 63.421 19.4427C63.421 19.4257 63.4379 19.4087 63.4379 19.3757C63.4379 19.3588 63.4549 19.3428 63.4549 19.3088V0.68318C63.4575 0.59584 63.4423 0.508884 63.4105 0.427553C63.3786 0.346222 63.3306 0.2722 63.2694 0.20995C63.2081 0.1477 63.135 0.0985099 63.0543 0.0653453C62.9735 0.0321807 62.888 0.0157282 62.8007 0.0169796ZM118.329 0.0829005C117.959 0.0829005 117.657 0.38354 117.657 0.7501V19.3088C117.657 19.4872 117.728 19.6583 117.853 19.7845C117.979 19.9106 118.15 19.9815 118.328 19.9815C118.507 19.9815 118.677 19.9106 118.803 19.7845C118.929 19.6583 119 19.4872 119 19.3088V0.751099C118.999 0.573433 118.928 0.40333 118.802 0.278076C118.677 0.152821 118.506 0.0826344 118.329 0.0829005ZM108.973 0.500399C108.956 0.46644 108.956 0.46644 108.939 0.450459C108.922 0.43348 108.922 0.400519 108.906 0.38354L108.889 0.36656C108.872 0.334994 108.849 0.306893 108.822 0.28366C108.822 0.28366 108.806 0.28366 108.806 0.26668C108.772 0.23372 108.755 0.21674 108.721 0.19976C108.721 0.19976 108.705 0.183779 108.688 0.183779C108.658 0.170964 108.629 0.15417 108.603 0.133839C108.587 0.133839 108.587 0.133839 108.57 0.11686C108.535 0.0998801 108.518 0.0998801 108.486 0.0998801H108.216C108.182 0.0998801 108.149 0.11686 108.116 0.133839H108.099L107.998 0.183779H107.981C107.944 0.206557 107.91 0.234463 107.88 0.26668C107.847 0.300639 107.83 0.31662 107.813 0.350579L107.796 0.36656C107.779 0.384894 107.767 0.408239 107.763 0.43348C107.763 0.450459 107.746 0.46644 107.746 0.48342V0.500399L100.272 19.0581C100.231 19.1597 100.216 19.2698 100.228 19.3786C100.239 19.4874 100.277 19.5917 100.339 19.6823C100.4 19.7729 100.483 19.8471 100.579 19.8983C100.676 19.9495 100.784 19.9762 100.893 19.976C101.162 19.976 101.414 19.8092 101.515 19.5595L108.368 2.55094L115.221 19.5595C115.269 19.6845 115.354 19.7916 115.465 19.8662C115.577 19.9407 115.708 19.9791 115.842 19.976C115.928 19.9756 116.013 19.9586 116.093 19.9261C116.176 19.8957 116.252 19.8487 116.316 19.7879C116.38 19.7272 116.431 19.6539 116.465 19.5727C116.5 19.4915 116.518 19.404 116.517 19.3157C116.517 19.2274 116.498 19.1401 116.463 19.0591L108.972 0.499401L108.973 0.500399ZM24.8752 18.5757H15.6541V9.67139H21.8686C22.2376 9.67139 22.5397 9.37175 22.5397 9.0042C22.5384 8.82679 22.4671 8.65709 22.3414 8.53211C22.2157 8.40712 22.0458 8.33699 21.8686 8.337H15.6541V1.35038H24.0515C24.4205 1.35038 24.7236 1.05074 24.7236 0.68318C24.722 0.505771 24.6505 0.336181 24.5246 0.211385C24.3987 0.0865893 24.2286 0.016709 24.0515 0.0169796H14.982C14.613 0.0169796 14.3098 0.31662 14.3098 0.68318V19.2419C14.3098 19.6095 14.612 19.9091 14.982 19.9091H24.8742C25.2441 19.9091 25.5463 19.6095 25.5463 19.2419C25.5447 19.0647 25.4733 18.8952 25.3476 18.7705C25.2219 18.6457 25.0521 18.5757 24.8752 18.5757ZM38.3274 0.0169796H29.2928C28.9228 0.0169796 28.6207 0.31662 28.6207 0.68318V19.2419C28.6207 19.4205 28.6915 19.5917 28.8175 19.7179C28.9436 19.8442 29.1145 19.9151 29.2928 19.9151C29.471 19.9151 29.642 19.8442 29.768 19.7179C29.8941 19.5917 29.9649 19.4205 29.9649 19.2419V9.67139H36.1446C36.5135 9.67139 36.8167 9.37175 36.8167 9.0042C36.8153 8.82661 36.7439 8.65677 36.618 8.53175C36.4921 8.40674 36.3219 8.33673 36.1446 8.337H29.9639V1.35038H38.3454C38.7143 1.35038 39.0165 1.05074 39.0165 0.68318C39.0165 0.31662 38.6964 0.0169796 38.3274 0.0169796ZM0.673111 0C0.303149 0 0 0.29964 0 0.667199C0 1.03376 0.302152 1.3344 0.672114 1.3344C5.45868 1.3344 9.33779 5.20276 9.33779 9.93807C9.33779 14.6734 5.45868 18.5587 0.672114 18.5587C0.303149 18.5587 0 18.8584 0 19.2259C0 19.5925 0.302152 19.8931 0.672114 19.8931C6.19761 19.8931 10.682 15.4235 10.682 9.95505C10.682 4.48462 6.1986 0 0.673111 0ZM83.8636 0C83.4937 0 83.1915 0.29964 83.1915 0.667199C83.1915 1.03376 83.4937 1.3344 83.8636 1.3344C88.6502 1.3344 92.5293 5.20276 92.5293 9.93807C92.5293 14.6734 88.6332 18.5417 83.8636 18.5417C83.4937 18.5417 83.1915 18.8414 83.1915 19.2089C83.1915 19.5755 83.4937 19.8761 83.8636 19.8761C89.3891 19.8761 93.8735 15.4075 93.8735 9.93807C93.8725 4.46864 89.3901 0 83.8636 0Z" fill="url(#paint0_linear_2939_24018)"/>
<path d="M71.3106 36.877H70.027V30.9869H71.2026L71.3585 32.0546L71.2026 31.9226C71.3226 31.6187 71.5425 31.3588 71.8624 31.1429C72.1903 30.919 72.5901 30.807 73.062 30.807C73.5818 30.807 74.0097 30.947 74.3456 31.2269C74.6815 31.4988 74.9094 31.8627 75.0293 32.3185H74.8014C74.8894 31.8627 75.1133 31.4988 75.4732 31.2269C75.8411 30.947 76.2849 30.807 76.8048 30.807C77.5005 30.807 78.0404 31.0069 78.4242 31.4068C78.8081 31.7987 79 32.3385 79 33.0263V36.877H77.7165V33.3502C77.7165 32.9103 77.6045 32.5744 77.3806 32.3425C77.1646 32.1026 76.8687 31.9826 76.4929 31.9826C76.2369 31.9826 76.009 32.0386 75.8091 32.1506C75.6092 32.2625 75.4492 32.4305 75.3292 32.6544C75.2173 32.8703 75.1613 33.1382 75.1613 33.4581V36.877H73.8777V33.3382C73.8777 32.8983 73.7658 32.5624 73.5418 32.3305C73.3259 32.0986 73.03 31.9826 72.6541 31.9826C72.3982 31.9826 72.1663 32.0426 71.9583 32.1626C71.7584 32.2745 71.5985 32.4385 71.4785 32.6544C71.3665 32.8703 71.3106 33.1382 71.3106 33.4581V36.877Z" fill="#120F19"/>
<path d="M66.0227 37.033C65.4389 37.033 64.9231 36.901 64.4752 36.6371C64.0354 36.3732 63.6875 36.0093 63.4316 35.5455C63.1836 35.0736 63.0597 34.5338 63.0597 33.926C63.0597 33.3102 63.1797 32.7704 63.4196 32.3065C63.6675 31.8427 64.0114 31.4788 64.4512 31.2149C64.8911 30.943 65.3989 30.807 65.9747 30.807C66.5505 30.807 67.0464 30.931 67.4622 31.1789C67.8861 31.4188 68.214 31.7627 68.4459 32.2105C68.6859 32.6504 68.8058 33.1702 68.8058 33.77V34.2019L63.7435 34.2139L63.7675 33.3742H67.5102C67.5102 32.9183 67.3703 32.5584 67.0904 32.2945C66.8185 32.0226 66.4466 31.8867 65.9747 31.8867C65.6149 31.8867 65.307 31.9626 65.051 32.1146C64.8031 32.2665 64.6112 32.4945 64.4752 32.7984C64.3473 33.0943 64.2833 33.4581 64.2833 33.89C64.2833 34.5618 64.4312 35.0736 64.7271 35.4255C65.031 35.7774 65.4709 35.9533 66.0467 35.9533C66.4626 35.9533 66.8065 35.8733 67.0784 35.7134C67.3503 35.5535 67.5262 35.3175 67.6062 35.0056H68.8178C68.6818 35.6374 68.366 36.1333 67.8701 36.4931C67.3823 36.853 66.7665 37.033 66.0227 37.033Z" fill="#120F19"/>
<path d="M58.9303 30.987H62.5171V32.0666H58.9303V30.987ZM61.3655 36.8771H60.0819V29.1396H61.3655V36.8771Z" fill="#120F19"/>
<path d="M53.6151 35.1256H54.8387C54.8467 35.4055 54.9507 35.6254 55.1506 35.7854C55.3505 35.9453 55.6265 36.0253 55.9783 36.0253C56.3462 36.0253 56.6301 35.9533 56.8301 35.8094C57.03 35.6654 57.13 35.4775 57.13 35.2456C57.13 35.0696 57.078 34.9257 56.974 34.8137C56.8701 34.6937 56.6741 34.5978 56.3862 34.5258L55.3306 34.2859C54.8107 34.1579 54.4189 33.962 54.1549 33.6981C53.899 33.4341 53.7711 33.0743 53.7711 32.6184C53.7711 32.2425 53.867 31.9226 54.059 31.6587C54.2589 31.3868 54.5308 31.1789 54.8747 31.0349C55.2186 30.883 55.6105 30.807 56.0503 30.807C56.4902 30.807 56.874 30.887 57.2019 31.0469C57.5298 31.1989 57.7857 31.4148 57.9697 31.6947C58.1536 31.9746 58.2456 32.3065 58.2456 32.6904H57.022C57.014 32.4105 56.922 32.1906 56.7461 32.0306C56.5701 31.8707 56.3222 31.7907 56.0023 31.7907C55.6904 31.7907 55.4465 31.8627 55.2706 32.0066C55.0946 32.1426 55.0067 32.3305 55.0067 32.5704C55.0067 32.9303 55.2746 33.1782 55.8104 33.3142L56.866 33.5541C57.3619 33.6661 57.7338 33.85 57.9817 34.1059C58.2296 34.3538 58.3536 34.7017 58.3536 35.1496C58.3536 35.5255 58.2496 35.8574 58.0417 36.1453C57.8417 36.4332 57.5618 36.6531 57.2019 36.805C56.8421 36.957 56.4222 37.033 55.9424 37.033C55.2306 37.033 54.6628 36.857 54.2389 36.5051C53.823 36.1533 53.6151 35.6934 53.6151 35.1256Z" fill="#120F19"/>
<path d="M48.6864 30.9871L50.6778 36.5772L49.934 37.8008L47.3069 30.9871H48.6864ZM47.4748 39.5643V38.4966H48.2786C48.4705 38.4966 48.6384 38.4766 48.7824 38.4366C48.9344 38.3966 49.0703 38.3167 49.1903 38.1967C49.3102 38.0847 49.4142 37.9088 49.5022 37.6689L51.9614 30.9871H53.3049L50.4619 38.1967C50.2539 38.7245 49.99 39.1044 49.6701 39.3363C49.3582 39.5762 48.9703 39.6962 48.5065 39.6962C48.3146 39.6962 48.1306 39.6842 47.9547 39.6602C47.7867 39.6362 47.6268 39.6042 47.4748 39.5643Z" fill="#120F19"/>
<path d="M40.6972 30.5432C40.6972 30.0393 40.8252 29.5995 41.0811 29.2236C41.345 28.8397 41.7049 28.5398 42.1607 28.3239C42.6246 28.108 43.1564 28 43.7562 28C44.332 28 44.8318 28.1 45.2557 28.2999C45.6796 28.4998 46.0115 28.7877 46.2514 29.1636C46.4913 29.5395 46.6233 29.9834 46.6473 30.4952H45.2797C45.2557 30.0873 45.1078 29.7714 44.8358 29.5475C44.5639 29.3236 44.2001 29.2116 43.7442 29.2116C43.2324 29.2116 42.8205 29.3276 42.5086 29.5595C42.2047 29.7914 42.0528 30.1073 42.0528 30.5072C42.0528 30.8351 42.1447 31.099 42.3287 31.2989C42.5206 31.4989 42.8085 31.6428 43.1924 31.7308L44.6079 32.0547C45.3357 32.2146 45.8795 32.4905 46.2394 32.8824C46.6073 33.2663 46.7912 33.7741 46.7912 34.4059C46.7912 34.9337 46.6592 35.3976 46.3953 35.7974C46.1394 36.1893 45.7755 36.4932 45.3037 36.7091C44.8318 36.9251 44.28 37.033 43.6482 37.033C43.0484 37.033 42.5206 36.9331 42.0648 36.7331C41.6089 36.5252 41.253 36.2333 40.9971 35.8574C40.7412 35.4816 40.6052 35.0417 40.5892 34.5379H41.9448C41.9608 34.9297 42.1207 35.2416 42.4246 35.4736C42.7285 35.6975 43.1404 35.8094 43.6602 35.8094C44.204 35.8094 44.6359 35.6935 44.9558 35.4616C45.2757 35.2296 45.4356 34.9177 45.4356 34.5259C45.4356 34.198 45.3437 33.9381 45.1597 33.7461C44.9838 33.5462 44.7039 33.4022 44.32 33.3143L42.9165 33.0024C42.1887 32.8424 41.6369 32.5585 41.261 32.1506C40.8851 31.7348 40.6972 31.199 40.6972 30.5432Z" fill="#120F19"/>
<path d="M32.0538 36.877H30.7703V30.9869H31.9459L32.0658 31.8147C32.2578 31.4948 32.5217 31.2469 32.8576 31.0709C33.2015 30.895 33.5813 30.807 33.9972 30.807C34.749 30.807 35.3088 31.0269 35.6767 31.4668C36.0525 31.9066 36.2405 32.5025 36.2405 33.2542V36.877H34.9569V33.5541C34.9569 33.0183 34.8329 32.6224 34.585 32.3665C34.3451 32.1106 34.0212 31.9826 33.6133 31.9826C33.1255 31.9826 32.7416 32.1426 32.4617 32.4625C32.1898 32.7744 32.0538 33.1942 32.0538 33.7221V36.877Z" fill="#120F19"/>
<path d="M23.1354 33.794C23.1354 33.2262 23.2513 32.7184 23.4833 32.2705C23.7152 31.8227 24.0391 31.4668 24.4549 31.2029C24.8788 30.939 25.3706 30.807 25.9305 30.807C26.4503 30.807 26.8941 30.927 27.262 31.1669C27.6299 31.3988 27.8858 31.7227 28.0298 32.1386L27.8858 32.2825L28.0058 30.9869H29.1934V36.6011C29.1934 37.2409 29.0694 37.7927 28.8215 38.2566C28.5736 38.7284 28.2217 39.0883 27.7659 39.3362C27.318 39.5921 26.7862 39.7201 26.1704 39.7201C25.3467 39.7201 24.6669 39.5002 24.131 39.0603C23.6032 38.6204 23.2873 38.0206 23.1834 37.2609H24.4909C24.5469 37.6688 24.7229 37.9847 25.0188 38.2086C25.3147 38.4405 25.6945 38.5565 26.1584 38.5565C26.6942 38.5565 27.1181 38.3965 27.43 38.0766C27.7419 37.7647 27.8978 37.3489 27.8978 36.829V35.2576L28.0658 35.4135C27.9138 35.8214 27.6419 36.1453 27.25 36.3852C26.8582 36.6251 26.4023 36.7451 25.8825 36.7451C25.3307 36.7451 24.8468 36.6171 24.431 36.3612C24.0231 36.0973 23.7032 35.7454 23.4713 35.3055C23.2473 34.8577 23.1354 34.3538 23.1354 33.794ZM24.4429 33.758C24.4429 34.1099 24.5109 34.4258 24.6469 34.7057C24.7828 34.9776 24.9788 35.1976 25.2347 35.3655C25.4906 35.5255 25.7905 35.6054 26.1344 35.6054C26.4863 35.6054 26.7902 35.5295 27.0461 35.3775C27.31 35.2176 27.5099 34.9976 27.6459 34.7177C27.7899 34.4378 27.8618 34.1179 27.8618 33.758C27.8618 33.3982 27.7938 33.0823 27.6579 32.8104C27.5219 32.5384 27.326 32.3265 27.0701 32.1746C26.8142 32.0146 26.5023 31.9346 26.1344 31.9346C25.7825 31.9346 25.4786 32.0186 25.2227 32.1866C24.9748 32.3465 24.7828 32.5624 24.6469 32.8343C24.5109 33.1063 24.4429 33.4142 24.4429 33.758Z" fill="#120F19"/>
<path d="M20.6253 36.877V30.987H21.9088V36.877H20.6253ZM21.261 29.6914C21.0371 29.6914 20.8452 29.6114 20.6852 29.4515C20.5253 29.2915 20.4453 29.0996 20.4453 28.8757C20.4453 28.6517 20.5253 28.4598 20.6852 28.2999C20.8452 28.1399 21.0371 28.0599 21.261 28.0599C21.485 28.0599 21.6769 28.1399 21.8369 28.2999C21.9968 28.4598 22.0768 28.6517 22.0768 28.8757C22.0768 29.0996 21.9968 29.2915 21.8369 29.4515C21.6769 29.6114 21.485 29.6914 21.261 29.6914Z" fill="#120F19"/>
<path d="M14.6984 35.1256H15.922C15.93 35.4055 16.0339 35.6254 16.2339 35.7854C16.4338 35.9453 16.7097 36.0253 17.0616 36.0253C17.4295 36.0253 17.7134 35.9533 17.9133 35.8094C18.1132 35.6654 18.2132 35.4775 18.2132 35.2456C18.2132 35.0696 18.1612 34.9257 18.0573 34.8137C17.9533 34.6937 17.7574 34.5978 17.4695 34.5258L16.4138 34.2859C15.894 34.1579 15.5021 33.962 15.2382 33.6981C14.9823 33.4341 14.8543 33.0743 14.8543 32.6184C14.8543 32.2425 14.9503 31.9226 15.1422 31.6587C15.3422 31.3868 15.6141 31.1789 15.958 31.0349C16.3018 30.883 16.6937 30.807 17.1336 30.807C17.5734 30.807 17.9573 30.887 18.2852 31.0469C18.6131 31.1989 18.869 31.4148 19.0529 31.6947C19.2369 31.9746 19.3288 32.3065 19.3288 32.6904H18.1052C18.0973 32.4105 18.0053 32.1906 17.8293 32.0306C17.6534 31.8707 17.4055 31.7907 17.0856 31.7907C16.7737 31.7907 16.5298 31.8627 16.3538 32.0066C16.1779 32.1426 16.0899 32.3305 16.0899 32.5704C16.0899 32.9303 16.3578 33.1782 16.8936 33.3142L17.9493 33.5541C18.4451 33.6661 18.817 33.85 19.0649 34.1059C19.3129 34.3538 19.4368 34.7017 19.4368 35.1496C19.4368 35.5255 19.3328 35.8574 19.1249 36.1453C18.925 36.4332 18.6451 36.6531 18.2852 36.805C17.9253 36.957 17.5054 37.033 17.0256 37.033C16.3138 37.033 15.746 36.857 15.3222 36.5051C14.9063 36.1533 14.6984 35.6934 14.6984 35.1256Z" fill="#120F19"/>
<path d="M11.1616 37.033C10.5778 37.033 10.062 36.901 9.61415 36.6371C9.17429 36.3732 8.8264 36.0093 8.57049 35.5455C8.32257 35.0736 8.19861 34.5338 8.19861 33.926C8.19861 33.3102 8.31857 32.7704 8.55849 32.3065C8.80641 31.8427 9.1503 31.4788 9.59015 31.2149C10.03 30.943 10.5378 30.807 11.1137 30.807C11.6895 30.807 12.1853 30.931 12.6012 31.1789C13.025 31.4188 13.3529 31.7627 13.5848 32.2105C13.8248 32.6504 13.9447 33.1702 13.9447 33.77V34.2019L8.88238 34.2139L8.90638 33.3742H12.6492C12.6492 32.9183 12.5092 32.5584 12.2293 32.2945C11.9574 32.0226 11.5855 31.8867 11.1137 31.8867C10.7538 31.8867 10.4459 31.9626 10.19 32.1146C9.94204 32.2665 9.7501 32.4945 9.61415 32.7984C9.48619 33.0943 9.42221 33.4581 9.42221 33.89C9.42221 34.5618 9.57016 35.0736 9.86606 35.4255C10.17 35.7774 10.6098 35.9533 11.1856 35.9533C11.6015 35.9533 11.9454 35.8733 12.2173 35.7134C12.4892 35.5535 12.6651 35.3175 12.7451 35.0056H13.9567C13.8208 35.6374 13.5049 36.1333 13.009 36.4931C12.5212 36.853 11.9054 37.033 11.1616 37.033Z" fill="#120F19"/>
<path d="M2.99902 36.877H0V28.1559H2.93904C3.80275 28.1559 4.56251 28.3398 5.21829 28.7077C5.87408 29.0756 6.38191 29.5874 6.74179 30.2432C7.10967 30.899 7.29361 31.6627 7.29361 32.5345C7.29361 33.3902 7.11367 34.1459 6.75379 34.8017C6.39391 35.4495 5.89007 35.9573 5.24228 36.3252C4.60249 36.6931 3.85474 36.877 2.99902 36.877ZM1.35556 28.7797V36.2652L0.707768 35.6294H2.89105C3.50685 35.6294 4.03468 35.5055 4.47453 35.2576C4.92239 35.0016 5.26628 34.6418 5.5062 34.1779C5.75412 33.7141 5.87808 33.1662 5.87808 32.5345C5.87808 31.8867 5.75412 31.3308 5.5062 30.867C5.25828 30.3952 4.90639 30.0353 4.45054 29.7873C4.00269 29.5314 3.46287 29.4035 2.83107 29.4035H0.707768L1.35556 28.7797Z" fill="#120F19"/>
<defs>
<linearGradient id="paint0_linear_2939_24018" x1="0" y1="9.996" x2="118.999" y2="9.996" gradientUnits="userSpaceOnUse">
<stop stop-color="#5427D8"/>
<stop offset="0.503" stop-color="#FF66B8"/>
<stop offset="1" stop-color="#FC7903"/>
</linearGradient>
</defs>
</svg>
