<svg width="20" height="20" viewBox="0 0 20 20" fill="none" xmlns="http://www.w3.org/2000/svg">
<path fill-rule="evenodd" clip-rule="evenodd" d="M17.8139 3.42564C18.6744 3.65563 19.352 4.33341 19.582 5.19376C20 6.75362 20 10.0077 20 10.0077C20 10.0077 20 13.2619 19.582 14.8216C19.352 15.682 18.6744 16.3599 17.8139 16.5897C16.2542 17.0077 9.99992 17.0077 9.99992 17.0077C9.99992 17.0077 3.74581 17.0077 2.18611 16.5897C1.3256 16.3599 0.647981 15.682 0.417994 14.8216C0 13.2619 0 10.0077 0 10.0077C0 10.0077 0 6.75362 0.417994 5.19376C0.647981 4.33341 1.3256 3.65563 2.18611 3.42564C3.74581 3.00781 9.99992 3.00781 9.99992 3.00781C9.99992 3.00781 16.2542 3.00781 17.8139 3.42564ZM13.1959 10.0079L8.00001 13.0077V7.00765L13.1959 10.0079Z" fill="#B2AEC1"/>
</svg>
