<svg width="20" height="20" viewBox="0 0 20 20" fill="none" xmlns="http://www.w3.org/2000/svg">
<path fill-rule="evenodd" clip-rule="evenodd" d="M16.9999 1C18.1045 1 19 1.89549 19 3.00006V16.9999C19 18.1045 18.1045 19 16.9999 19H3.00006C1.89549 19 1 18.1045 1 16.9999V3.00006C1 1.89549 1.89549 1 3.00006 1H16.9999ZM3.75812 16.5001H6.44263V7.8335H3.75812V16.5001ZM13.3459 7.56873C11.5141 7.56873 10.739 8.98944 10.7328 9.00079V7.8335H8.15814V16.5001H10.7328V11.9506C10.7328 10.7317 11.2936 10.0061 12.3676 10.006C13.3548 10.006 13.8287 10.7033 13.8287 11.9506V16.5001H16.5001V11.0129C16.5001 8.69135 15.184 7.56882 13.3459 7.56873ZM5.08746 3.49994C4.21073 3.49994 3.50008 4.21596 3.49994 5.099C3.49994 5.98216 4.21064 6.69861 5.08746 6.69861C5.96423 6.69854 6.67444 5.98212 6.67444 5.099C6.6743 4.216 5.96415 3.5 5.08746 3.49994Z" fill="#B2AEC1"/>
</svg>
